<svg width="268" height="135" viewBox="0 0 268 135" fill="none" xmlns="http://www.w3.org/2000/svg">
<path d="M34.89 134.502H25.39L9.5 110.392V134.502H0V95.2317H9.5L25.39 119.562V95.2317H34.89V134.502Z" fill="white"/>
<path d="M70.5999 120.722H49.11C49.22 123.062 49.8099 124.722 50.8799 125.722C51.9965 126.757 53.4782 127.307 54.9999 127.252C56.2494 127.301 57.4789 126.927 58.49 126.192C59.3967 125.523 60.0462 124.562 60.33 123.472H70.3799C69.9955 125.618 69.0773 127.633 67.71 129.332C66.3129 131.076 64.5246 132.467 62.49 133.392C60.0941 134.442 57.4964 134.951 54.8815 134.884C52.2665 134.816 49.6985 134.174 47.36 133.002C45.0188 131.739 43.097 129.821 41.83 127.482C40.5228 124.853 39.8425 121.957 39.8425 119.022C39.8425 116.086 40.5228 113.19 41.83 110.562C43.0949 108.226 45.0178 106.314 47.36 105.062C49.8817 103.815 52.6569 103.167 55.4699 103.167C58.283 103.167 61.0582 103.815 63.58 105.062C65.8602 106.269 67.7399 108.114 68.99 110.372C70.3022 112.78 70.9639 115.489 70.9099 118.232C70.8895 119.07 70.7856 119.904 70.5999 120.722ZM59.5999 112.142C58.4518 111.112 56.9513 110.564 55.4099 110.612C53.8198 110.556 52.2691 111.114 51.08 112.172C49.8396 113.365 49.1208 115.001 49.08 116.722H61.2599C61.3427 115.885 61.2395 115.041 60.9577 114.249C60.6759 113.457 60.2225 112.738 59.6299 112.142H59.5999Z" fill="white"/>
<path d="M95.2599 134.502L88.9299 125.672L83.7599 134.502H73.2599L83.5399 118.342L72.8799 103.502H83.5499L89.8199 112.232L94.9899 103.502H105.43L94.9299 119.282L105.88 134.502H95.2599Z" fill="white"/>
<path d="M126.98 126.332V134.502H122.71C119.08 134.502 116.25 133.602 114.24 131.812C112.23 130.022 111.24 127.042 111.24 122.892V111.502H107.07V103.502H111.26V95.8917H120.76V103.502H126.98V111.502H120.76V123.062C120.711 123.515 120.753 123.974 120.881 124.411C121.01 124.849 121.224 125.257 121.51 125.612C122.229 126.162 123.129 126.419 124.03 126.332H126.98Z" fill="white"/>
<path d="M170.26 125.202C168.646 128.144 166.187 130.533 163.2 132.062C159.762 133.769 155.957 134.607 152.12 134.502H138.98V95.2817H152.09C155.925 95.1806 159.727 96.011 163.17 97.7017C166.153 99.2071 168.614 101.577 170.23 104.502C171.815 107.722 172.64 111.263 172.64 114.852C172.64 118.441 171.815 121.982 170.23 125.202H170.26ZM162.45 125.112C164.97 122.672 166.23 119.248 166.23 114.842C166.23 110.435 164.97 107.008 162.45 104.562C159.93 102.122 156.32 100.898 151.62 100.892H145.34V128.782H151.62C156.3 128.782 159.9 127.558 162.42 125.112H162.45Z" fill="white"/>
<path d="M198.42 105.562C200.347 106.89 201.803 108.794 202.58 111.002V103.892H208.91V134.502H202.58V127.392C201.807 129.601 200.35 131.507 198.42 132.832C196.319 134.243 193.83 134.963 191.3 134.892C188.794 134.933 186.326 134.279 184.17 133.002C182.038 131.703 180.328 129.813 179.25 127.562C178.076 124.931 177.47 122.082 177.47 119.202C177.47 116.321 178.076 113.473 179.25 110.842C180.328 108.587 182.037 106.694 184.17 105.392C186.314 104.122 188.768 103.468 191.26 103.502C193.803 103.422 196.308 104.142 198.42 105.562ZM186.5 111.752C184.859 113.875 183.97 116.483 183.97 119.167C183.97 121.85 184.859 124.458 186.5 126.582C187.367 127.487 188.418 128.197 189.583 128.662C190.747 129.128 191.997 129.339 193.25 129.282C194.927 129.307 196.58 128.875 198.03 128.032C199.444 127.185 200.597 125.963 201.36 124.502C202.163 122.843 202.58 121.024 202.58 119.182C202.58 117.339 202.163 115.52 201.36 113.862C200.6 112.393 199.448 111.163 198.03 110.312C196.58 109.469 194.927 109.037 193.25 109.062C191.998 109.005 190.749 109.215 189.585 109.679C188.421 110.143 187.369 110.85 186.5 111.752Z" fill="white"/>
<path d="M231.91 129.002V134.502H228.02C224.76 134.502 222.29 133.715 220.61 132.142C218.93 130.568 218.087 127.948 218.08 124.282V109.282H213.69V103.892H218.08V96.2817H224.47V103.892H231.85V109.282H224.47V124.392C224.47 126.132 224.79 127.332 225.47 128.002C226.429 128.773 227.656 129.133 228.88 129.002H231.91Z" fill="white"/>
<path d="M257.26 105.562C259.187 106.89 260.643 108.794 261.42 111.002V103.892H267.76V134.502H261.42V127.392C260.648 129.601 259.19 131.507 257.26 132.832C255.164 134.244 252.677 134.965 250.15 134.892C247.641 134.934 245.169 134.28 243.01 133.002C240.882 131.698 239.174 129.81 238.09 127.562C236.923 124.929 236.32 122.081 236.32 119.202C236.32 116.322 236.923 113.474 238.09 110.842C239.172 108.59 240.881 106.698 243.01 105.392C245.169 104.113 247.641 103.459 250.15 103.502C252.677 103.429 255.164 104.149 257.26 105.562ZM245.34 111.752C243.706 113.878 242.82 116.485 242.82 119.167C242.82 121.848 243.706 124.455 245.34 126.582C246.209 127.486 247.26 128.194 248.424 128.66C249.588 129.125 250.838 129.337 252.09 129.282C253.767 129.307 255.42 128.875 256.87 128.032C258.289 127.19 259.443 125.967 260.2 124.502C261.003 122.843 261.42 121.024 261.42 119.182C261.42 117.339 261.003 115.52 260.2 113.862C259.446 112.388 258.292 111.158 256.87 110.312C255.42 109.469 253.767 109.037 252.09 109.062C250.835 109.004 249.583 109.214 248.416 109.678C247.248 110.142 246.193 110.849 245.32 111.752H245.34Z" fill="white"/>
<path d="M136.183 40.0017L145.183 56.2817C145.366 56.6122 145.459 56.9846 145.454 57.3621C145.449 57.7397 145.345 58.1093 145.153 58.4344C144.961 58.7596 144.688 59.0292 144.36 59.2164C144.032 59.4035 143.661 59.5019 143.283 59.5017H125.283C124.906 59.5019 124.535 59.4035 124.207 59.2164C123.879 59.0292 123.605 58.7596 123.414 58.4344C123.222 58.1093 123.118 57.7397 123.113 57.3621C123.107 56.9846 123.201 56.6122 123.383 56.2817L132.383 40.0017C132.571 39.6619 132.846 39.3786 133.18 39.1813C133.514 38.984 133.895 38.88 134.283 38.88C134.671 38.88 135.052 38.984 135.387 39.1813C135.721 39.3786 135.996 39.6619 136.183 40.0017ZM120.343 66.2217H108.403L134.293 19.3317L160.183 66.2117H148.233C148.039 66.2111 147.849 66.2628 147.681 66.3613C147.514 66.4599 147.377 66.6016 147.283 66.7717L142.513 75.4117C142.421 75.5774 142.374 75.7644 142.376 75.954C142.378 76.1437 142.43 76.3295 142.526 76.4931C142.622 76.6567 142.758 76.7924 142.923 76.8869C143.087 76.9814 143.274 77.0313 143.463 77.0317H174.463C174.841 77.0299 175.212 76.9299 175.54 76.7415C175.867 76.5531 176.14 76.2828 176.332 75.957C176.524 75.6313 176.627 75.2614 176.633 74.8835C176.638 74.5057 176.545 74.1329 176.363 73.8017L136.183 1.1217C135.996 0.781923 135.721 0.498619 135.387 0.301331C135.052 0.104042 134.671 0 134.283 0C133.895 0 133.514 0.104042 133.18 0.301331C132.846 0.498619 132.571 0.781923 132.383 1.1217L92.2534 73.8017C92.0773 74.1342 91.9904 74.5065 92.0008 74.8825C92.0113 75.2585 92.1189 75.6254 92.3132 75.9476C92.5075 76.2697 92.7819 76.5361 93.1096 76.7208C93.4373 76.9055 93.8072 77.0023 94.1833 77.0017H125.183C125.373 77.0013 125.559 76.9514 125.724 76.8569C125.888 76.7625 126.025 76.6267 126.121 76.4631C126.217 76.2995 126.269 76.1137 126.271 75.924C126.273 75.7344 126.226 75.5474 126.133 75.3817L121.363 66.7417C121.261 66.5679 121.113 66.4262 120.934 66.3325C120.756 66.2389 120.554 66.197 120.353 66.2117L120.343 66.2217Z" fill="white"/>
</svg>
