<svg width="34" height="34" viewBox="0 0 34 34" fill="none" xmlns="http://www.w3.org/2000/svg">
<path d="M17 14.5C17.9199 14.5 18.6656 13.7542 18.6656 12.8343C18.6656 11.9144 17.9199 11.1687 17 11.1687C16.0801 11.1687 15.3344 11.9144 15.3344 12.8343C15.3344 13.7542 16.0801 14.5 17 14.5Z" fill="#8696BB"/>
<path d="M19.6031 18.0532C18.7926 18.4571 17.8993 18.6674 16.9937 18.6674C16.0881 18.6674 15.1949 18.4571 14.3844 18.0532C14.1373 17.9282 13.8644 17.863 13.5875 17.8625C13.1111 17.8642 12.6545 18.0527 12.3156 18.3875C12.0922 18.595 11.9435 18.8704 11.8927 19.171C11.8418 19.4716 11.8916 19.7806 12.0344 20.05C12.0852 20.1496 12.1426 20.2457 12.2062 20.3375C12.7462 21.1082 13.4636 21.7377 14.2979 22.1728C15.1322 22.6079 16.059 22.8359 17 22.8375C17.9396 22.8381 18.8654 22.611 19.6981 22.1756C20.5307 21.7402 21.2455 21.1095 21.7812 20.3375C21.8442 20.2452 21.9016 20.1492 21.9531 20.05C22.0966 19.7834 22.1481 19.4768 22.0995 19.1778C22.0509 18.8789 21.905 18.6044 21.6844 18.3969C21.4175 18.1284 21.0728 17.9506 20.6992 17.8889C20.3257 17.8272 19.9422 17.8847 19.6031 18.0532Z" fill="#8696BB"/>
<path d="M17 7C14.3478 7 11.8043 8.05357 9.92892 9.92893C8.05356 11.8043 7 14.3478 7 17C7 19.6522 8.05356 22.1957 9.92892 24.0711C11.8043 25.9464 14.3478 27 17 27C19.6522 27 22.1957 25.9464 24.0711 24.0711C25.9464 22.1957 27 19.6522 27 17C27 14.3478 25.9464 11.8043 24.0711 9.92893C22.1957 8.05357 19.6522 7 17 7ZM17 9.5C17.8835 9.50165 18.7304 9.85358 19.3548 10.4786C19.9793 11.1037 20.3304 11.9508 20.3312 12.8344C20.3304 13.7176 19.9792 14.5645 19.3546 15.189C18.7301 15.8136 17.8832 16.1648 17 16.1656C16.1165 16.1648 15.2693 15.8137 14.6443 15.1892C14.0192 14.5647 13.6673 13.7179 13.6656 12.8344C13.6673 11.9506 14.0191 11.1034 14.6441 10.4784C15.269 9.85348 16.1162 9.50165 17 9.5ZM23.4375 20.8063C23.352 20.9733 23.2549 21.1341 23.1469 21.2875C22.4581 22.2798 21.5391 23.0903 20.4686 23.6498C19.3981 24.2093 18.2079 24.501 17 24.5C15.7931 24.4958 14.6048 24.2018 13.5351 23.6428C12.4654 23.0837 11.5457 22.276 10.8531 21.2875C10.7435 21.129 10.6454 20.963 10.5594 20.7906C10.2549 20.2091 10.1479 19.5443 10.2544 18.8966C10.361 18.2489 10.6753 17.6534 11.15 17.2C11.6658 16.6887 12.3298 16.3531 13.0473 16.2409C13.7649 16.1287 14.4996 16.2456 15.1469 16.575C15.7251 16.8624 16.3621 17.012 17.0078 17.012C17.6535 17.012 18.2905 16.8624 18.8687 16.575C19.5211 16.2475 20.2603 16.1348 20.9806 16.2533C21.7008 16.3717 22.3651 16.7152 22.8781 17.2344C23.3453 17.6891 23.6523 18.283 23.7532 18.9271C23.8541 19.5711 23.7433 20.2305 23.4375 20.8063Z" fill="#8696BB"/>
</svg>
