<svg width="34" height="34" viewBox="0 0 34 34" fill="none" xmlns="http://www.w3.org/2000/svg">
<path d="M26.2966 16.2604C26.4925 16.0955 26.6496 15.8894 26.7568 15.6568C26.864 15.4243 26.9186 15.1709 26.9167 14.9149C26.9159 14.4488 26.7317 14.0018 26.4039 13.6705C26.0761 13.3392 25.631 13.1502 25.165 13.1445L21.0228 13.1104C20.8494 13.1108 20.6803 13.0568 20.5391 12.9562C20.3978 12.8556 20.2916 12.7133 20.2354 12.5493L18.8557 8.43193C18.7258 8.04067 18.4765 7.70004 18.1427 7.45807C17.809 7.2161 17.4077 7.08499 16.9954 7.08325C16.5832 7.08499 16.1819 7.2161 15.8482 7.45807C15.5144 7.70004 15.265 8.04067 15.1352 8.43193L13.7648 12.5493C13.7085 12.7133 13.6023 12.8556 13.4611 12.9562C13.3199 13.0568 13.1507 13.1108 12.9773 13.1104L8.83519 13.1445C8.36915 13.1502 7.92409 13.3392 7.59628 13.6705C7.26846 14.0018 7.08425 14.4488 7.08347 14.9149C7.0816 15.1709 7.13619 15.4243 7.24337 15.6568C7.35054 15.8894 7.50766 16.0955 7.70355 16.2604L11.0768 19.1314C11.202 19.2369 11.2932 19.3771 11.339 19.5343C11.3847 19.6915 11.383 19.8588 11.3341 20.015L10.0257 24.1478C9.87916 24.6081 9.90497 25.106 10.0983 25.5486C10.2917 25.9913 10.6395 26.3485 11.0768 26.5537C11.3425 26.6824 11.6342 26.7482 11.9294 26.746C12.3392 26.7467 12.7394 26.6223 13.0765 26.3894L16.5335 23.9742C16.6704 23.8802 16.8325 23.8299 16.9985 23.8299C17.1646 23.8299 17.3267 23.8802 17.4636 23.9742L20.9205 26.3894C21.2102 26.5897 21.5474 26.7103 21.8984 26.7391C22.2494 26.7679 22.6018 26.704 22.9203 26.5537C23.3576 26.3485 23.7054 25.9913 23.8987 25.5486C24.0921 25.106 24.1179 24.6081 23.9713 24.1478L22.6661 20.0274C22.6181 19.8719 22.6159 19.7058 22.6599 19.5491C22.7039 19.3923 22.7922 19.2516 22.9141 19.1438L26.2966 16.2604ZM16.8404 12.8097C16.9436 12.7752 17.0526 12.7614 17.1612 12.7691C17.2697 12.7767 17.3757 12.8057 17.473 12.8544C17.5704 12.9031 17.6571 12.9704 17.7284 13.0527C17.7997 13.1349 17.854 13.2304 17.8884 13.3337C18.1057 13.9861 18.5213 14.5546 19.077 14.9597C19.6327 15.3648 20.301 15.5865 20.9887 15.5938C21.2078 15.5963 21.4169 15.6854 21.5703 15.8418C21.7237 15.9981 21.8089 16.2088 21.8072 16.4278C21.8064 16.646 21.7192 16.855 21.5646 17.009C21.41 17.163 21.2007 17.2495 20.9825 17.2495C19.9479 17.2409 18.9418 16.909 18.1051 16.3003C17.2684 15.6915 16.643 14.8364 16.3164 13.8545C16.282 13.7515 16.2682 13.6427 16.276 13.5344C16.2837 13.4261 16.3127 13.3203 16.3614 13.2233C16.4101 13.1262 16.4774 13.0397 16.5596 12.9687C16.6418 12.8977 16.7373 12.8437 16.8404 12.8097Z" fill="#8696BB"/>
</svg>
