<svg width="34" height="34" viewBox="0 0 34 34" fill="none" xmlns="http://www.w3.org/2000/svg">
<path d="M25.7114 14.031L20.41 8.53699C19.5023 7.60752 18.278 7.08532 17.0016 7.08325C15.7253 7.08532 14.5009 7.60752 13.5933 8.53699L8.28873 14.031C7.51668 14.8326 7.0832 15.9186 7.08342 17.0508V23.3407C7.08342 24.4755 7.51847 25.564 8.29296 26.3667C9.06744 27.1694 10.118 27.6209 11.2137 27.6217H12.8683C13.5257 27.6217 14.1562 27.3512 14.621 26.8698C15.0859 26.3883 15.3471 25.7353 15.3471 25.0544V23.3407C15.3487 22.887 15.5236 22.4525 15.8337 22.132C16.1437 21.8115 16.5636 21.6311 17.0016 21.6303C17.4391 21.6319 17.8583 21.8127 18.1676 22.1331C18.477 22.4535 18.6515 22.8876 18.6531 23.3407V25.0544C18.6531 25.7353 18.9143 26.3883 19.3791 26.8698C19.844 27.3512 20.4745 27.6217 21.1319 27.6217H22.7865C23.8822 27.6209 24.9327 27.1694 25.7072 26.3667C26.4817 25.564 26.9168 24.4755 26.9168 23.3407V17.0508C26.917 15.9186 26.4835 14.8326 25.7114 14.031ZM20.4781 14.5349C20.4013 14.6145 20.31 14.6777 20.2095 14.7206C20.109 14.7636 20.0012 14.7855 19.8925 14.7852C19.7843 14.7853 19.6771 14.7632 19.5771 14.7202C19.4772 14.6773 19.3864 14.6143 19.31 14.5349L17.8289 13.0009C17.6049 12.7829 17.309 12.6616 17.0016 12.6616C16.6942 12.6616 16.3984 12.7829 16.1743 13.0009L14.6933 14.5349C14.5382 14.695 14.3282 14.7849 14.1092 14.7849C13.8903 14.7849 13.6802 14.695 13.5251 14.5349C13.3706 14.3743 13.2838 14.1567 13.2838 13.9299C13.2838 13.7032 13.3706 13.4856 13.5251 13.325L15.0062 11.7878C15.5439 11.2566 16.2585 10.9602 17.0016 10.9602C17.7448 10.9602 18.4593 11.2566 18.9971 11.7878L20.4781 13.325C20.6327 13.4856 20.7195 13.7032 20.7195 13.9299C20.7195 14.1567 20.6327 14.3743 20.4781 14.5349Z" fill="#8696BB"/>
</svg>
