<svg width="9" height="12" viewBox="0 0 9 12" fill="none" xmlns="http://www.w3.org/2000/svg">
<path fill-rule="evenodd" clip-rule="evenodd" d="M8.49286 2.07193H6.43387C6.32301 1.62208 6.07293 1.22361 5.7229 0.939098C5.37287 0.654582 4.94273 0.500133 4.5 0.5C4.05749 0.500221 3.62759 0.654738 3.27784 0.939271C2.9281 1.2238 2.67833 1.62222 2.5678 2.07193H0.507138C0.374088 2.07191 0.246353 2.12677 0.151485 2.22468C0.0566176 2.32259 0.00221749 2.4557 0 2.59532V10.9766C0.00221749 11.1162 0.0566176 11.2493 0.151485 11.3473C0.246353 11.4452 0.374088 11.5 0.507138 11.5H8.49286C8.62591 11.5 8.75365 11.4452 8.84852 11.3473C8.94338 11.2493 8.99778 11.1162 9 10.9766V2.59532C8.99778 2.4557 8.94338 2.32259 8.84852 2.22468C8.75365 2.12677 8.62591 2.07191 8.49286 2.07193ZM4.5 1.03226C4.6345 1.03226 4.7635 1.08834 4.8586 1.18816C4.95371 1.28797 5.00714 1.42335 5.00714 1.56452C5.00492 1.70414 4.95052 1.83725 4.85565 1.93516C4.76079 2.03307 4.63305 2.08792 4.5 2.08791C4.36695 2.08792 4.23922 2.03307 4.14435 1.93516C4.04948 1.83725 3.99508 1.70414 3.99286 1.56452C3.99286 1.42335 4.04629 1.28797 4.1414 1.18816C4.2365 1.08834 4.3655 1.03226 4.5 1.03226ZM4.62509 9.15097H1.87979C1.83059 9.15097 1.78187 9.14077 1.73643 9.12095C1.691 9.10114 1.64973 9.07209 1.61502 9.0355C1.5803 8.9989 1.55282 8.95547 1.53414 8.90769C1.51547 8.85991 1.50598 8.80874 1.5062 8.7571C1.5062 8.65311 1.54555 8.55337 1.61561 8.47984C1.68568 8.40631 1.78071 8.365 1.87979 8.365H4.62509C4.72433 8.365 4.81954 8.40625 4.88987 8.47973C4.9602 8.55322 4.99992 8.65294 5.00037 8.7571C4.9986 8.86032 4.95828 8.95869 4.88809 9.03103C4.8179 9.10337 4.72346 9.14389 4.62509 9.14387V9.15097ZM7.12021 7.05565H1.87979C1.83059 7.05565 1.78187 7.04545 1.73643 7.02563C1.691 7.00581 1.64973 6.97677 1.61502 6.94017C1.5803 6.90358 1.55282 6.86014 1.53414 6.81237C1.51547 6.76459 1.50598 6.71342 1.5062 6.66178C1.5062 6.55779 1.54555 6.45805 1.61561 6.38452C1.68568 6.31099 1.78071 6.26968 1.87979 6.26968H7.12021C7.16941 6.26944 7.21817 6.27941 7.26369 6.29901C7.30921 6.31861 7.35061 6.34746 7.38548 6.38389C7.42035 6.42033 7.44801 6.46363 7.46689 6.51131C7.48577 6.559 7.49549 6.61014 7.49549 6.66178C7.49415 6.76515 7.45397 6.86379 7.38368 6.93622C7.3134 7.00866 7.21871 7.04903 7.12021 7.04855V7.05565ZM7.12021 4.96033H1.87979C1.83059 4.96033 1.78187 4.95012 1.73643 4.93031C1.691 4.91049 1.64973 4.88145 1.61502 4.84485C1.5803 4.80825 1.55282 4.76482 1.53414 4.71704C1.51547 4.66927 1.50598 4.61809 1.5062 4.56645C1.5062 4.46246 1.54555 4.36273 1.61561 4.2892C1.68568 4.21567 1.78071 4.17435 1.87979 4.17435H7.12021C7.16941 4.17412 7.21817 4.18409 7.26369 4.20369C7.30921 4.22329 7.35061 4.25214 7.38548 4.28857C7.42035 4.325 7.44801 4.36831 7.46689 4.41599C7.48577 4.46368 7.49549 4.51481 7.49549 4.56645C7.49415 4.66983 7.45397 4.76846 7.38368 4.84089C7.3134 4.91333 7.21871 4.9537 7.12021 4.95323V4.96033Z" fill="#8696BB"/>
</svg>
