<svg width="135" height="123" viewBox="0 0 135 123" fill="none" xmlns="http://www.w3.org/2000/svg">
<path d="M119.233 18.3268L115.319 22.2353" stroke="#5E6175" stroke-width="6" stroke-miterlimit="10"/>
<path d="M110.754 13.812V19.3396" stroke="#5E6175" stroke-width="6" stroke-miterlimit="10"/>
<path d="M123.904 26.4598H118.368" stroke="#5E6175" stroke-width="6" stroke-miterlimit="10"/>
<path d="M117.199 89.6843V99.7967C117.199 101.274 116.908 102.737 116.342 104.102C115.776 105.467 114.946 106.707 113.9 107.751C112.854 108.796 111.612 109.624 110.246 110.19C108.879 110.755 107.414 111.045 105.935 111.045H36.7858C39.7643 111.018 42.6131 109.824 44.7191 107.72C46.825 105.616 48.02 102.771 48.0467 99.7967V89.6873H117.199V89.6843Z" fill="url(#paint0_linear_30_441)"/>
<path style="mix-blend-mode:multiply" d="M117.198 89.6841V99.7965C117.199 101.274 116.908 102.737 116.342 104.101C115.776 105.466 114.946 106.707 113.9 107.751C112.854 108.796 111.612 109.624 110.246 110.189C108.879 110.755 107.414 111.045 105.935 111.045H89.2645C89.4064 110.725 89.5649 110.414 89.7395 110.111L101.552 89.6782L117.198 89.6841Z" fill="url(#paint1_linear_30_441)"/>
<path d="M48.0497 89.6873V99.7967C48.0738 101.289 47.8003 102.771 47.2451 104.157C46.69 105.542 45.8642 106.804 44.816 107.868C43.7678 108.931 42.5181 109.776 41.1397 110.353C39.7613 110.93 38.2817 111.227 36.7873 111.227C35.2928 111.227 33.8132 110.93 32.4348 110.353C31.0564 109.776 29.8067 108.931 28.7585 107.868C27.7103 106.804 26.8846 105.542 26.3294 104.157C25.7742 102.771 25.5007 101.289 25.5248 99.7967V89.6873H48.0497Z" fill="url(#paint2_linear_30_441)"/>
<path d="M3 24.3637H25.5248V14.2484C25.5248 12.7712 25.2335 11.3085 24.6674 9.9438C24.1014 8.57909 23.2717 7.33908 22.2257 6.29457C21.1798 5.25006 19.938 4.42151 18.5715 3.85623C17.2049 3.29095 15.7401 3 14.261 3C11.2741 3.00078 8.40983 4.18621 6.29808 6.2956C4.18632 8.405 3 11.2656 3 14.2484V24.3637Z" fill="url(#paint3_linear_30_441)"/>
<path d="M93.0436 21.1665L92.0087 22.2117L101.525 30.585V89.696H48.0496V99.7967C48.0738 101.289 47.8003 102.771 47.2451 104.157C46.6899 105.542 45.8642 106.804 44.816 107.868C43.7678 108.931 42.5181 109.776 41.1397 110.353C39.7613 110.93 38.2817 111.227 36.7872 111.227C35.2927 111.227 33.8132 110.93 32.4348 110.353C31.0564 109.776 29.8067 108.931 28.7585 107.868C27.7103 106.804 26.8845 105.542 26.3294 104.157C25.7742 102.771 25.5007 101.289 25.5248 99.7967V79.3025L35.8505 69.5766L35.3609 69.0818H25.5248V14.2453C25.5233 11.2626 24.3354 8.40256 22.2226 6.29427C20.1097 4.18598 17.2449 3.00203 14.258 3.00281H90.2584C93.2453 3.00203 96.1102 4.18598 98.223 6.29427C100.336 8.40256 101.524 11.2626 101.525 14.2453V21.1665H93.0436Z" fill="#F5F5F5"/>
<path d="M93.0436 21.1665L92.0087 22.2117L101.525 30.585V89.696H48.0496V99.7967C48.0738 101.289 47.8003 102.771 47.2451 104.157C46.6899 105.542 45.8642 106.804 44.816 107.868C43.7678 108.931 42.5181 109.776 41.1397 110.353C39.7613 110.93 38.2817 111.227 36.7872 111.227C35.2927 111.227 33.8132 110.93 32.4348 110.353C31.0564 109.776 29.8067 108.931 28.7585 107.868C27.7103 106.804 26.8845 105.542 26.3294 104.157C25.7742 102.771 25.5007 101.289 25.5248 99.7967V79.3025L35.8505 69.5766L35.3609 69.0818H25.5248V14.2453C25.5233 11.2626 24.3354 8.40256 22.2226 6.29427C20.1097 4.18598 17.2449 3.00203 14.258 3.00281H90.2584C93.2453 3.00203 96.1102 4.18598 98.223 6.29427C100.336 8.40256 101.524 11.2626 101.525 14.2453V21.1665H93.0436Z" stroke="#5E6175" stroke-width="6" stroke-miterlimit="10"/>
<path d="M101.525 21.1637H93.0436L85.8959 28.3015H75.4999L71.0612 23.8689" stroke="#5E6175" stroke-width="6" stroke-miterlimit="10"/>
<path d="M111.1 33.7558L102.622 25.7543H111.1V33.7558Z" fill="#F5F5F5"/>
<path d="M3 24.3637H25.5248V14.2484C25.5248 12.7712 25.2335 11.3085 24.6674 9.9438C24.1014 8.57909 23.2717 7.33908 22.2257 6.29457C21.1798 5.25006 19.938 4.42151 18.5715 3.85623C17.2049 3.29095 15.7401 3 14.261 3C11.2741 3.00078 8.40983 4.18621 6.29808 6.2956C4.18632 8.405 3 11.2656 3 14.2484V24.3637Z" stroke="#5E6175" stroke-width="6" stroke-miterlimit="10"/>
<path d="M48.0496 89.6873V99.7967C48.0214 102.771 46.8256 105.616 44.7193 107.719C42.613 109.823 39.7644 111.017 36.7858 111.045H105.935C108.922 111.045 111.787 109.86 113.899 107.751C116.012 105.641 117.199 102.78 117.199 99.7967V89.6873H48.0496Z" stroke="#5E6175" stroke-width="6" stroke-miterlimit="10"/>
<path d="M25.5248 69.0789H35.3609L43.4263 77.136H55.6635L61.4889 82.9534" stroke="#5E6175" stroke-width="6" stroke-miterlimit="10"/>
<path d="M17.7322 80.617L24.5456 73.8159H17.7322V80.617Z" fill="#F5F5F5"/>
<path d="M111.1 33.7558L102.622 25.7543H111.1V33.7558Z" stroke="#5E6175" stroke-width="6" stroke-miterlimit="10"/>
<path d="M17.7322 80.617L24.5456 73.8159H17.7322V80.617Z" stroke="#5E6175" stroke-width="6" stroke-miterlimit="10"/>
<path d="M57.2391 37.5954L47.8812 46.9404L51.0489 50.1037L60.4068 40.7587L57.2391 37.5954Z" fill="#5E6175"/>
<path d="M51.0489 37.5952L47.8812 40.7585L57.2391 50.1035L60.4068 46.9402L51.0489 37.5952Z" fill="#5E6175"/>
<path d="M79.0195 37.595L69.6616 46.9399L72.8293 50.1032L82.1872 40.7583L79.0195 37.595Z" fill="#5E6175"/>
<path d="M72.8293 37.595L69.6616 40.7583L79.0195 50.1033L82.1872 46.94L72.8293 37.595Z" fill="#5E6175"/>
<path d="M70.0233 67.4863L65.0334 62.5062L60.0406 67.4863L55.0536 62.5062L50.1312 67.4219L47.0939 64.3887L55.0536 56.4399L60.0406 61.4229L65.0334 56.4429L70.0233 61.4229L75.0132 56.4399L82.97 64.3887L79.9356 67.4219L75.0132 62.5062L70.0233 67.4863Z" fill="#5E6175"/>
<path d="M112.355 40.9111V80.2306" stroke="#A9AFC4" stroke-width="6" stroke-miterlimit="10" stroke-dasharray="6 10 6 10 6 10"/>
<path d="M18.7524 88.5776V118.675" stroke="#A9AFC4" stroke-width="6" stroke-miterlimit="10" stroke-dasharray="6 10 6 10 6 10"/>
<path d="M22.684 117.677H90.5106" stroke="#A9AFC4" stroke-width="6" stroke-miterlimit="10" stroke-dasharray="6 10 6 10 6 10"/>
<path d="M116.281 86.3877L131.385 112.512C131.783 113.2 131.993 113.981 131.993 114.775C131.993 115.57 131.783 116.35 131.385 117.038C130.987 117.726 130.415 118.298 129.726 118.695C129.037 119.092 128.255 119.301 127.46 119.301H97.2624C96.4668 119.301 95.6851 119.092 94.9961 118.695C94.307 118.298 93.7347 117.726 93.3369 117.038C92.939 116.35 92.7296 115.57 92.7296 114.775C92.7295 113.981 92.939 113.2 93.3368 112.512L108.441 86.3877C108.839 85.7014 109.411 85.1317 110.099 84.7356C110.787 84.3396 111.567 84.1311 112.361 84.1311C113.155 84.1311 113.935 84.3396 114.623 84.7356C115.311 85.1317 115.883 85.7014 116.281 86.3877Z" fill="#F5F5F5"/>
<path d="M116.281 86.3877L131.385 112.512C131.783 113.2 131.993 113.981 131.993 114.775C131.993 115.57 131.783 116.35 131.385 117.038C130.987 117.726 130.415 118.298 129.726 118.695C129.037 119.092 128.255 119.301 127.46 119.301H97.2624C96.4668 119.301 95.6851 119.092 94.9961 118.695C94.307 118.298 93.7347 117.726 93.3369 117.038C92.939 116.35 92.7296 115.57 92.7296 114.775C92.7295 113.981 92.939 113.2 93.3368 112.512L108.441 86.3877C108.839 85.7014 109.411 85.1317 110.099 84.7356C110.787 84.3396 111.567 84.1311 112.361 84.1311C113.155 84.1311 113.935 84.3396 114.623 84.7356C115.311 85.1317 115.883 85.7014 116.281 86.3877Z" stroke="#5E6175" stroke-width="6" stroke-miterlimit="10"/>
<path d="M109.388 93.4494V101.659L110.315 106.785H112.352V106.788H114.39L115.319 101.653L115.322 93.4348L109.388 93.4494Z" fill="#E1830E"/>
<path d="M114.577 110.445H110.124V114.892H114.577V110.445Z" fill="#E1830E"/>
<path d="M16.1431 48.7927C17.1826 48.7927 18.0253 47.9511 18.0253 46.9131C18.0253 45.875 17.1826 45.0334 16.1431 45.0334C15.1036 45.0334 14.2609 45.875 14.2609 46.9131C14.2609 47.9511 15.1036 48.7927 16.1431 48.7927Z" stroke="#5E6175" stroke-width="6" stroke-miterlimit="10"/>
<path d="M7.39184 62.635C8.99644 62.635 10.2972 61.3361 10.2972 59.7337C10.2972 58.1313 8.99644 56.8323 7.39184 56.8323C5.78724 56.8323 4.48645 58.1313 4.48645 59.7337C4.48645 61.3361 5.78724 62.635 7.39184 62.635Z" stroke="#5E6175" stroke-width="6" stroke-miterlimit="10"/>
<defs>
<linearGradient id="paint0_linear_30_441" x1="36.7858" y1="100.368" x2="117.199" y2="100.368" gradientUnits="userSpaceOnUse">
<stop stop-color="#CACFDD"/>
<stop offset="1" stop-color="#EEF0F1"/>
</linearGradient>
<linearGradient id="paint1_linear_30_441" x1="89.2645" y1="100.367" x2="117.198" y2="100.367" gradientUnits="userSpaceOnUse">
<stop stop-color="#CACFDD"/>
<stop offset="1" stop-color="#EEF0F1"/>
</linearGradient>
<linearGradient id="paint2_linear_30_441" x1="25.5248" y1="100.371" x2="48.0497" y2="100.371" gradientUnits="userSpaceOnUse">
<stop stop-color="#CACFDD"/>
<stop offset="1" stop-color="#EEF0F1"/>
</linearGradient>
<linearGradient id="paint3_linear_30_441" x1="3" y1="13.6833" x2="25.5248" y2="13.6833" gradientUnits="userSpaceOnUse">
<stop stop-color="#CACFDD"/>
<stop offset="1" stop-color="#EEF0F1"/>
</linearGradient>
</defs>
</svg>
