<svg width="31" height="31" viewBox="0 0 31 31" fill="none" xmlns="http://www.w3.org/2000/svg">
<path d="M15.5 31C24.0604 31 31 24.0604 31 15.5C31 6.93959 24.0604 0 15.5 0C6.93959 0 0 6.93959 0 15.5C0 24.0604 6.93959 31 15.5 31Z" fill="#8696BB"/>
<path d="M27.9384 24.7374C26.4928 22.802 24.6157 21.2305 22.4563 20.1477C20.2969 19.0649 17.9147 18.5008 15.4991 18.5C13.0834 18.4992 10.7009 19.0619 8.5408 20.1434C6.38072 21.2248 4.50265 22.7951 3.05585 24.7296C4.4953 26.6739 6.3703 28.2538 8.5305 29.3427C10.6907 30.4317 13.076 30.9993 15.4952 31C17.9143 31.0008 20.3 30.4347 22.4608 29.3471C24.6217 28.2595 26.4977 26.6808 27.9384 24.7374Z" fill="#DBE0EA"/>
<path d="M15.5003 16.4999C18.814 16.4999 21.5003 13.8136 21.5003 10.4999C21.5003 7.18617 18.814 4.49988 15.5003 4.49988C12.1866 4.49988 9.50031 7.18617 9.50031 10.4999C9.50031 13.8136 12.1866 16.4999 15.5003 16.4999Z" fill="#DBE0EA"/>
</svg>
