<svg width="34" height="34" viewBox="0 0 34 34" fill="none" xmlns="http://www.w3.org/2000/svg">
<path fill-rule="evenodd" clip-rule="evenodd" d="M25.0008 9.14387H20.875C20.6529 8.24416 20.1518 7.44723 19.4504 6.8782C18.749 6.30916 17.8871 6.00027 17 6C16.1133 6.00044 15.2519 6.30948 14.5511 6.87854C13.8503 7.44761 13.3498 8.24445 13.1283 9.14387H8.99925C8.73265 9.14383 8.47669 9.25354 8.2866 9.44936C8.09651 9.64517 7.98751 9.9114 7.98306 10.1906V26.9532C7.98751 27.2325 8.09651 27.4987 8.2866 27.6945C8.47669 27.8903 8.73265 28 8.99925 28H25.0008C25.2673 28 25.5233 27.8903 25.7134 27.6945C25.9035 27.4987 26.0125 27.2325 26.0169 26.9532V10.1906C26.0125 9.9114 25.9035 9.64517 25.7134 9.44936C25.5233 9.25354 25.2673 9.14383 25.0008 9.14387ZM17 7.06452C17.2695 7.06452 17.528 7.17667 17.7186 7.37631C17.9091 7.57595 18.0162 7.8467 18.0162 8.12903C18.0117 8.40827 17.9027 8.6745 17.7126 8.87032C17.5225 9.06613 17.2666 9.17585 17 9.17581C16.7334 9.17585 16.4774 9.06613 16.2874 8.87032C16.0973 8.6745 15.9883 8.40827 15.9838 8.12903C15.9838 7.8467 16.0909 7.57595 16.2814 7.37631C16.472 7.17667 16.7305 7.06452 17 7.06452ZM17.2507 23.3019H11.7497C11.6511 23.3019 11.5535 23.2815 11.4625 23.2419C11.3714 23.2023 11.2887 23.1442 11.2192 23.071C11.1496 22.9978 11.0945 22.9109 11.0571 22.8154C11.0197 22.7198 11.0007 22.6175 11.0011 22.5142C11.0011 22.3062 11.08 22.1067 11.2204 21.9597C11.3608 21.8126 11.5512 21.73 11.7497 21.73H17.2507C17.4495 21.73 17.6403 21.8125 17.7812 21.9595C17.9221 22.1064 18.0017 22.3059 18.0026 22.5142C17.9991 22.7206 17.9183 22.9174 17.7776 23.0621C17.637 23.2067 17.4478 23.2878 17.2507 23.2877V23.3019ZM22.2503 19.1113H11.7497C11.6511 19.1113 11.5535 19.0909 11.4625 19.0513C11.3714 19.0116 11.2887 18.9535 11.2192 18.8803C11.1496 18.8072 11.0945 18.7203 11.0571 18.6247C11.0197 18.5292 11.0007 18.4268 11.0011 18.3236C11.0011 18.1156 11.08 17.9161 11.2204 17.769C11.3608 17.622 11.5512 17.5394 11.7497 17.5394H22.2503C22.3489 17.5389 22.4466 17.5588 22.5378 17.598C22.629 17.6372 22.7119 17.6949 22.7818 17.7678C22.8517 17.8407 22.9071 17.9273 22.9449 18.0226C22.9828 18.118 23.0022 18.2203 23.0022 18.3236C22.9996 18.5303 22.9191 18.7276 22.7782 18.8724C22.6374 19.0173 22.4477 19.0981 22.2503 19.0971V19.1113ZM22.2503 14.9207H11.7497C11.6511 14.9207 11.5535 14.9002 11.4625 14.8606C11.3714 14.821 11.2887 14.7629 11.2192 14.6897C11.1496 14.6165 11.0945 14.5296 11.0571 14.4341C11.0197 14.3385 11.0007 14.2362 11.0011 14.1329C11.0011 13.9249 11.08 13.7255 11.2204 13.5784C11.3608 13.4313 11.5512 13.3487 11.7497 13.3487H22.2503C22.3489 13.3482 22.4466 13.3682 22.5378 13.4074C22.629 13.4466 22.7119 13.5043 22.7818 13.5771C22.8517 13.65 22.9071 13.7366 22.9449 13.832C22.9828 13.9274 23.0022 14.0296 23.0022 14.1329C22.9996 14.3397 22.9191 14.5369 22.7782 14.6818C22.6374 14.8267 22.4477 14.9074 22.2503 14.9065V14.9207Z" fill="#1864D3"/>
</svg>
